<svg width="24" height="68" viewBox="0 0 24 68" fill="none" xmlns="http://www.w3.org/2000/svg">
<path d="M20 67C20.5523 67 21 66.4316 21 65.7304C21 65.0292 20.5523 64.4608 20 64.4608C19.4477 64.4608 19 65.0292 19 65.7304C19 66.4316 19.4477 67 20 67Z" stroke="white" stroke-width="2" stroke-linecap="round" stroke-linejoin="round"/>
<path d="M9 67C9.55228 67 10 66.4316 10 65.7304C10 65.0292 9.55228 64.4608 9 64.4608C8.44772 64.4608 8 65.0292 8 65.7304C8 66.4316 8.44772 67 9 67Z" stroke="white" stroke-width="2" stroke-linecap="round" stroke-linejoin="round"/>
<path d="M1 40.3382H5L7.68 57.3383C7.77144 57.9228 8.02191 58.4478 8.38755 58.8215C8.75318 59.1952 9.2107 59.3937 9.68 59.3823H19.4C19.8693 59.3937 20.3268 59.1952 20.6925 58.8215C21.0581 58.4478 21.3086 57.9228 21.4 57.3383L23 46.6862H6" stroke="white" stroke-width="2" stroke-linecap="round" stroke-linejoin="round"/>
</svg>
