<svg width="17" height="17" viewBox="0 0 17 17" fill="none" xmlns="http://www.w3.org/2000/svg">
<path d="M15.2525 5.03765C15.2633 5.18866 15.2633 5.3397 15.2633 5.49071C15.2633 10.0966 11.7576 15.4038 5.35025 15.4038C3.37626 15.4038 1.54252 14.832 0 13.8397C0.280467 13.872 0.550109 13.8828 0.841367 13.8828C2.47015 13.8828 3.96953 13.3327 5.16687 12.3943C3.63514 12.3619 2.35151 11.3587 1.90925 9.97801C2.125 10.0104 2.34072 10.0319 2.56727 10.0319C2.88007 10.0319 3.19291 9.98877 3.48414 9.9133C1.8877 9.58967 0.690326 8.1874 0.690326 6.49388V6.45074C1.15414 6.70963 1.69353 6.87143 2.26518 6.89298C1.32673 6.26733 0.711908 5.19945 0.711908 3.99132C0.711908 3.34413 0.884465 2.75085 1.18651 2.23308C2.90162 4.34729 5.47968 5.72798 8.37051 5.87902C8.31659 5.62014 8.28421 5.35049 8.28421 5.08082C8.28421 3.16075 9.83752 1.59668 11.7683 1.59668C12.7715 1.59668 13.6776 2.01736 14.314 2.69693C15.1014 2.54592 15.8565 2.25467 16.5253 1.85556C16.2664 2.66459 15.7163 3.34416 14.9936 3.7756C15.6948 3.70013 16.3743 3.50593 16.9999 3.23628C16.5254 3.92661 15.9321 4.54143 15.2525 5.03765Z" fill="black"/>
</svg>
